<svg width="128" height="76" viewBox="0 0 128 76" fill="none" xmlns="http://www.w3.org/2000/svg">
<path id="Vector" d="M14.2271 62.9918C13.1935 58.6416 15.0127 55.6047 17.9484 53.4296C20.5533 51.5008 23.5304 49.8592 26.5488 48.7101C32.7095 46.3709 39.1183 44.8114 46.1888 44.1958C46.5609 45.7143 46.9329 47.2327 47.305 48.7512C48.256 53.0192 48.8349 57.4104 50.2407 61.4733C52.7629 68.6552 58.0968 73.1695 65.4567 75.3035C72.9819 77.4786 79.9695 74.4828 83.36 67.383C88.9419 55.6458 85.2206 45.3859 75.9588 39.3531C73.2299 37.5885 70.0874 36.3983 66.9864 35.2903C64.4228 34.3463 61.6939 33.936 58.4688 33.1152C58.8409 31.5967 58.8824 29.9551 59.668 28.765C61.446 26.0154 63.1412 22.9785 65.622 21.0086C79.5561 9.92801 95.2267 5.70092 112.799 10.7077C116.727 11.8158 120.573 13.3342 123.426 16.6174C123.922 17.1919 125.576 17.1919 126.444 16.8636C127.891 16.2891 128.387 14.6065 127.684 13.4574C126.403 11.4465 124.914 9.35345 123.053 7.91708C115.321 2.00742 106.266 -0.331848 96.6739 0.0375056C86.9159 0.406859 77.6953 3.07445 69.0537 7.67085C59.9573 12.5135 53.2178 19.367 49.7447 29.1754C49.2898 30.4476 48.7109 31.7199 47.9666 33.5666C36.3066 36.1111 23.9438 37.6706 12.5732 44.8114C12.2838 42.0207 12.1599 39.9687 11.8705 37.9578C11.6224 36.1521 10.4646 35.044 8.72801 34.5516C7.07412 34.1001 4.84136 35.3313 4.17981 37.2191C3.5596 39.0249 2.98077 40.8716 2.77404 42.7594C1.82305 50.8852 0.954758 59.052 0.0864639 67.2188C0.00376892 68.0396 -0.0376282 68.8604 0.0450745 69.6812C0.334503 72.7591 2.52587 74.8932 5.58558 74.4417C14.558 73.0874 23.4889 71.4869 32.42 69.9684C33.2056 69.8453 34.2392 69.6401 34.6941 69.1066C35.521 68.1217 36.3894 66.9316 36.4721 65.7414C36.5548 65.0027 35.397 63.6894 34.5287 63.4432C32.4613 62.7866 30.2699 62.3351 28.1199 62.3351C25.1015 62.3351 22.0832 62.8276 19.0648 63.0328C17.535 63.0738 15.9224 62.9918 14.2271 62.9918ZM56.4842 43.9906C63.1825 43.4981 67.9375 44.6883 71.8241 47.561C77.0752 51.4597 78.481 57.7387 75.504 63.6073C73.9741 66.6443 71.3692 67.8754 68.0201 67.0957C63.3892 66.0287 60.2055 63.197 58.4276 58.8878C56.4843 54.2914 55.9053 49.4899 56.4842 43.9906Z" fill="#4E4846"/>
</svg>
