<svg width="122" height="91" viewBox="0 0 122 91" fill="none" xmlns="http://www.w3.org/2000/svg">
<path id="Vector" d="M110.26 72.1385C111.657 70.6519 113.071 69.0843 114.601 67.6077C115.474 66.7904 116.423 65.9376 117.49 65.4124C118.953 64.681 120.56 64.9059 121.413 66.2757C121.971 67.1813 122.12 68.6107 121.878 69.6405C121.596 70.7803 120.806 71.8506 119.968 72.7425C114.974 78.169 110.039 83.641 104.841 88.9081C101.966 91.8649 98.2235 91.6114 96.0441 88.2191C94.0876 85.1418 92.5661 81.7481 91.2002 78.3355C89.1932 73.343 87.4846 68.2087 85.7015 63.1099C85.5469 62.7077 85.7945 62.1511 85.8574 61.5907C89.0052 59.785 91.5653 61.1304 93.572 63.5436C94.9356 65.2194 95.8769 67.3153 96.8054 69.3075C97.7049 71.2769 98.3577 73.3817 99.0661 75.2955C100.92 75.385 100.767 74.1402 100.873 73.2851C102.057 63.1916 99.3994 53.7515 95.5908 44.5837C94.8724 42.8027 93.5443 41.2015 92.2126 39.7849C77.1682 23.9882 59.0807 13.6428 37.5561 9.61292C28.2919 7.9019 19.4208 9.82762 10.8315 13.1928C9.29727 13.775 8.10135 15.1845 6.69261 16.1461C5.33573 17.1015 3.89721 16.9613 2.59989 16.0407C1.07604 14.9897 0.241169 13.1177 0.89302 11.5642C1.46656 10.2308 2.21846 8.8493 3.29325 7.95475C4.74483 6.69835 6.47481 5.56585 8.28477 4.87103C18.7751 0.694588 29.5969 -1.20618 40.8264 1.29128C56.1402 4.68483 70.4143 10.5478 82.8058 20.3781C88.6054 24.96 94.4214 29.461 99.2299 35.1905C102.132 38.6787 104.184 42.534 105.369 46.8373C107.432 54.218 109.155 61.6141 108.971 69.3482C108.979 70.0578 109.149 70.8004 109.312 71.491C109.361 71.6694 109.691 71.7869 110.26 72.1385Z" fill="#4E4846"/>
</svg>
