<svg width="75" height="88" viewBox="0 0 75 88" fill="none" xmlns="http://www.w3.org/2000/svg">
<g id="Vector">
<path d="M63.6267 78.0541L64.712 78.3092C64.7676 76.7179 64.8128 75.1833 64.8567 73.6908C64.9759 69.6401 65.0859 65.8989 65.3706 62.1723C65.5338 60.2111 66.3522 58.217 67.2328 56.4203C68.0233 54.7967 70.4845 55.0773 71.1989 56.7475C71.598 57.6924 71.9741 58.7023 71.9797 59.6843C72.0268 62.1291 71.9207 64.5932 71.8147 67.0573C71.5776 72.1814 71.6251 77.2447 73.7484 82.1458C75.2201 85.5305 73.0899 87.6776 69.3699 86.9836C68.9565 86.9113 68.5652 86.8175 68.1525 86.7016C67.2636 86.4476 66.3733 86.1935 65.4822 85.9391C61.2568 84.7331 57.0121 83.5217 52.7977 82.2809C51.8421 82.0033 50.8887 81.5948 50.0025 81.0783C48.8574 80.383 48.1137 79.1707 48.7003 78.0019C49.196 77.05 50.3705 75.9564 51.3547 75.8199C52.7015 75.6338 54.1386 75.9418 55.5462 76.2433C55.7615 76.2895 55.9763 76.3355 56.1898 76.3795C58.6344 76.8797 61.0444 77.4467 63.6267 78.0541Z" fill="white"/>
<path d="M43.3682 46.7577C45.5036 49.35 47.6736 51.9843 51.2591 53.8005C51.2348 53.0661 51.2082 52.3292 51.1816 51.5923C51.1282 50.1166 51.0749 48.641 51.0407 47.1851L51.0356 46.8312C51.0156 45.5057 50.9955 44.1678 51.1769 42.8885C51.3508 41.6039 52.2178 40.6362 53.6168 40.4847C54.9937 40.3546 56.1624 40.9412 56.6001 42.1922C57.2887 44.102 57.845 46.0969 58.1174 48.109C58.3045 49.5293 58.3286 50.983 58.3528 52.438C58.3662 53.2457 58.3796 54.0538 58.4209 54.8568C58.4765 55.8406 58.5017 56.8263 58.527 57.8106C58.6325 61.9178 58.7372 65.9989 61.0334 69.8038C62.159 71.6771 60.1333 74.1096 57.9753 73.965C57.3652 73.9113 56.7336 73.8354 56.17 73.6079C50.3194 71.1112 44.491 68.5931 38.6632 66.0313C37.9265 65.7137 37.1919 65.2651 36.6562 64.6671C35.7779 63.6707 35.5807 62.4019 36.1022 61.2103C36.6466 59.9536 37.7689 59.3829 39.0971 59.5575C39.922 59.6764 40.7344 59.9296 41.5436 60.1819C41.9088 60.2958 42.2734 60.4095 42.6382 60.5105C43.1086 60.6455 43.5714 60.7803 44.0973 60.9336C44.8341 61.1483 45.6946 61.3991 46.8732 61.7368C46.5302 61.1383 46.2475 60.6161 45.9967 60.1528C45.4721 59.1836 45.087 58.4721 44.5804 57.8584C40.3028 52.5945 35.9586 47.3949 31.6146 42.1954C28.9051 38.962 26.1932 35.7355 23.4828 32.5106C17.8652 25.8269 12.2538 19.1506 6.68274 12.4352C4.58576 9.91299 2.64405 7.24067 0.745947 4.56903C0.0214396 3.50966 -0.044951 2.24295 0.759071 1.12147C1.4744 0.0858179 3.41781 0.00875193 4.6444 1.05454C5.87028 2.14399 6.94089 3.38357 8.01156 4.6232L8.56556 5.27396C14.3548 12.0741 20.1622 18.8957 25.928 25.7576C31.5774 32.528 37.226 39.3419 42.8532 46.1337C43.0251 46.3412 43.1966 46.5493 43.3682 46.7577Z" fill="white"/>
</g>
</svg>
