<svg width="52" height="52" viewBox="0 0 52 52" fill="none" xmlns="http://www.w3.org/2000/svg">
<g id="ic:baseline-discord">
<path id="Vector" d="M41.7517 11.5483C38.87 10.205 35.75 9.23 32.5 8.66666C32.4715 8.66575 32.4431 8.6711 32.4169 8.68233C32.3907 8.69356 32.3673 8.7104 32.3483 8.73167C31.9583 9.44667 31.5033 10.3783 31.2 11.0933C27.7528 10.5733 24.2472 10.5733 20.8 11.0933C20.4967 10.3567 20.0417 9.44667 19.63 8.73167C19.6083 8.68833 19.5433 8.66666 19.4783 8.66666C16.2283 9.23 13.13 10.205 10.2267 11.5483C10.205 11.5483 10.1833 11.57 10.1617 11.5917C4.26832 20.41 2.64332 28.99 3.44499 37.4833C3.44499 37.5267 3.46666 37.57 3.50999 37.5917C7.40999 40.4517 11.1583 42.185 14.8633 43.3333C14.9283 43.355 14.9933 43.3333 15.015 43.29C15.8817 42.0983 16.6617 40.8417 17.3333 39.52C17.3767 39.4333 17.3333 39.3467 17.2467 39.325C16.0117 38.8483 14.8417 38.285 13.6933 37.635C13.6067 37.5917 13.6067 37.4617 13.6717 37.3967C13.91 37.2233 14.1483 37.0283 14.3867 36.855C14.43 36.8117 14.495 36.8117 14.5383 36.8333C21.9917 40.235 30.03 40.235 37.3967 36.8333C37.44 36.8117 37.505 36.8117 37.5483 36.855C37.7867 37.05 38.025 37.2233 38.2633 37.4183C38.35 37.4833 38.35 37.6133 38.2417 37.6567C37.115 38.3283 35.9233 38.87 34.6883 39.3467C34.6017 39.3683 34.58 39.4767 34.6017 39.5417C35.295 40.8633 36.075 42.12 36.92 43.3117C36.985 43.3333 37.05 43.355 37.115 43.3333C40.8417 42.185 44.59 40.4517 48.49 37.5917C48.5333 37.57 48.555 37.5267 48.555 37.4833C49.5083 27.6683 46.9733 19.1533 41.8383 11.5917C41.8167 11.57 41.795 11.5483 41.7517 11.5483ZM18.46 32.305C16.2283 32.305 14.365 30.2467 14.365 27.7117C14.365 25.1767 16.185 23.1183 18.46 23.1183C20.7567 23.1183 22.5767 25.1983 22.555 27.7117C22.555 30.2467 20.735 32.305 18.46 32.305ZM33.5617 32.305C31.33 32.305 29.4667 30.2467 29.4667 27.7117C29.4667 25.1767 31.2867 23.1183 33.5617 23.1183C35.8583 23.1183 37.6783 25.1983 37.6567 27.7117C37.6567 30.2467 35.8583 32.305 33.5617 32.305Z" fill="#FDF1EE"/>
</g>
</svg>
