<svg width="112" height="60" viewBox="0 0 112 60" fill="none" xmlns="http://www.w3.org/2000/svg">
<mask id="path-1-outside-1_72_1587" maskUnits="userSpaceOnUse" x="8" y="8" width="93" height="45" fill="black">
<rect fill="white" x="8" y="8" width="93" height="45"/>
<path d="M36.0156 12.875L26.9141 29.1836V41H19.1602V29.6133L9.96094 12.875H17.8711L23.9844 27.0156L30.5469 12.875H36.0156ZM60.0586 29.6719C60.0586 30.8438 59.9023 31.944 59.5898 32.9727C59.2773 34.0013 58.8411 34.9518 58.2812 35.8242C57.7344 36.6966 57.0703 37.4844 56.2891 38.1875C55.5078 38.8776 54.6484 39.4635 53.7109 39.9453C52.7865 40.4271 51.7904 40.7982 50.7227 41.0586C49.668 41.319 48.5807 41.4492 47.4609 41.4492C46.3411 41.4492 45.2539 41.319 44.1992 41.0586C43.1445 40.7982 42.1484 40.4271 41.2109 39.9453C40.2865 39.4635 39.4336 38.8776 38.6523 38.1875C37.8711 37.4844 37.2005 36.6966 36.6406 35.8242C36.0938 34.9518 35.6641 34.0013 35.3516 32.9727C35.0391 31.931 34.8828 30.8307 34.8828 29.6719C34.8828 28.513 35.0391 27.4193 35.3516 26.3906C35.6641 25.349 36.0938 24.3919 36.6406 23.5195C37.2005 22.6471 37.8711 21.8659 38.6523 21.1758C39.4336 20.4727 40.2865 19.8802 41.2109 19.3984C42.1484 18.9167 43.1445 18.5456 44.1992 18.2852C45.2539 18.0247 46.3411 17.8945 47.4609 17.8945C48.5807 17.8945 49.668 18.0247 50.7227 18.2852C51.7904 18.5456 52.7865 18.9167 53.7109 19.3984C54.6484 19.8802 55.5078 20.4727 56.2891 21.1758C57.0703 21.8659 57.7344 22.6471 58.2812 23.5195C58.8411 24.3919 59.2773 25.349 59.5898 26.3906C59.9023 27.4193 60.0586 28.513 60.0586 29.6719ZM53.3398 29.6719C53.3398 29.0469 53.3008 28.3893 53.2227 27.6992C53.1576 26.9961 53.0404 26.3125 52.8711 25.6484C52.7018 24.9714 52.4674 24.3268 52.168 23.7148C51.8815 23.0898 51.5234 22.5495 51.0938 22.0938C50.6641 21.625 50.1497 21.2539 49.5508 20.9805C48.9518 20.694 48.2552 20.5508 47.4609 20.5508C46.7057 20.5508 46.0352 20.694 45.4492 20.9805C44.8633 21.2669 44.349 21.651 43.9062 22.1328C43.4766 22.6016 43.112 23.1484 42.8125 23.7734C42.526 24.3984 42.2917 25.0495 42.1094 25.7266C41.9271 26.3906 41.7969 27.0677 41.7188 27.7578C41.6406 28.4349 41.6016 29.0729 41.6016 29.6719C41.6016 30.2708 41.6406 30.9154 41.7188 31.6055C41.7969 32.2826 41.9271 32.9596 42.1094 33.6367C42.2917 34.3138 42.526 34.9648 42.8125 35.5898C43.112 36.2018 43.4766 36.7487 43.9062 37.2305C44.349 37.6992 44.8633 38.0768 45.4492 38.3633C46.0352 38.6497 46.7057 38.793 47.4609 38.793C48.2422 38.793 48.9323 38.6562 49.5312 38.3828C50.1302 38.0964 50.6445 37.7188 51.0742 37.25C51.5169 36.7812 51.8815 36.2409 52.168 35.6289C52.4544 35.0169 52.6823 34.3724 52.8516 33.6953C53.0339 33.0182 53.1576 32.3346 53.2227 31.6445C53.3008 30.9544 53.3398 30.2969 53.3398 29.6719ZM86.9531 38.2852C86.9531 40.082 86.6862 41.7747 86.1523 43.3633C85.6185 44.9518 84.8438 46.3385 83.8281 47.5234C82.8125 48.7214 81.5625 49.6654 80.0781 50.3555C78.6068 51.0586 76.9271 51.4102 75.0391 51.4102C73.9974 51.4102 72.9427 51.293 71.875 51.0586C70.8203 50.8242 69.8177 50.4596 68.8672 49.9648C67.9297 49.4831 67.0833 48.8646 66.3281 48.1094C65.5859 47.3672 65 46.4883 64.5703 45.4727L67.4219 44.3984C67.6693 45.0365 67.9883 45.6224 68.3789 46.1562C68.7826 46.6901 69.2448 47.1458 69.7656 47.5234C70.2865 47.9141 70.8594 48.2135 71.4844 48.4219C72.1094 48.6432 72.7669 48.7539 73.457 48.7539C74.7591 48.7539 75.8464 48.487 76.7188 47.9531C77.6042 47.4193 78.3138 46.7227 78.8477 45.8633C79.3815 45.0039 79.7656 44.0273 80 42.9336C80.2344 41.8529 80.3516 40.7526 80.3516 39.6328V38.3047C79.5703 39.3724 78.6263 40.1667 77.5195 40.6875C76.4258 41.1953 75.2214 41.4492 73.9062 41.4492C72.1875 41.4492 70.651 41.1432 69.2969 40.5312C67.9427 39.9193 66.7969 39.0859 65.8594 38.0312C64.9219 36.9635 64.2057 35.7135 63.7109 34.2812C63.2161 32.849 62.9688 31.3125 62.9688 29.6719C62.9688 28.0312 63.2161 26.4948 63.7109 25.0625C64.2057 23.6302 64.9219 22.3867 65.8594 21.332C66.7969 20.2643 67.9427 19.4245 69.2969 18.8125C70.651 18.2005 72.1875 17.8945 73.9062 17.8945C74.7786 17.8945 75.6055 18.0247 76.3867 18.2852C77.181 18.5456 77.9036 18.9167 78.5547 19.3984C79.2188 19.8672 79.7982 20.4401 80.293 21.1172C80.8008 21.7812 81.1979 22.5234 81.4844 23.3438L84.4141 18.4414H86.9531V38.2852ZM80.3125 29.6719C80.3125 29.0859 80.2799 28.4674 80.2148 27.8164C80.1628 27.1654 80.0651 26.5208 79.9219 25.8828C79.7786 25.2448 79.5768 24.6393 79.3164 24.0664C79.069 23.4805 78.7435 22.9661 78.3398 22.5234C77.9492 22.0677 77.474 21.7096 76.9141 21.4492C76.3542 21.1888 75.7031 21.0586 74.9609 21.0586C74.2188 21.0586 73.5742 21.1953 73.0273 21.4688C72.4805 21.7292 72.0117 22.0872 71.6211 22.543C71.2305 22.9857 70.9049 23.5 70.6445 24.0859C70.3971 24.6719 70.2018 25.2839 70.0586 25.9219C69.9154 26.5599 69.8112 27.2044 69.7461 27.8555C69.694 28.4935 69.668 29.099 69.668 29.6719C69.668 30.2448 69.694 30.8568 69.7461 31.5078C69.8112 32.1589 69.9154 32.8034 70.0586 33.4414C70.2018 34.0794 70.3971 34.6914 70.6445 35.2773C70.9049 35.8633 71.2305 36.3841 71.6211 36.8398C72.0117 37.2826 72.4805 37.6406 73.0273 37.9141C73.5742 38.1745 74.2188 38.3047 74.9609 38.3047C75.638 38.3047 76.237 38.168 76.7578 37.8945C77.2917 37.6081 77.7539 37.2305 78.1445 36.7617C78.5482 36.293 78.8867 35.7591 79.1602 35.1602C79.4336 34.5612 79.6549 33.9427 79.8242 33.3047C79.9935 32.6667 80.1172 32.0352 80.1953 31.4102C80.2734 30.7721 80.3125 30.1927 80.3125 29.6719ZM99.4141 12.9922C99.4141 13.487 99.3164 13.9557 99.1211 14.3984C98.9388 14.8411 98.6849 15.2253 98.3594 15.5508C98.0339 15.8763 97.6497 16.1367 97.207 16.332C96.7643 16.5143 96.2956 16.6055 95.8008 16.6055C95.306 16.6055 94.8372 16.5143 94.3945 16.332C93.9648 16.1367 93.5872 15.8763 93.2617 15.5508C92.9362 15.2253 92.6758 14.8411 92.4805 14.3984C92.2982 13.9557 92.207 13.487 92.207 12.9922C92.207 12.4974 92.2982 12.0352 92.4805 11.6055C92.6758 11.1628 92.9362 10.7786 93.2617 10.4531C93.5872 10.1276 93.9648 9.8737 94.3945 9.69141C94.8372 9.49609 95.306 9.39844 95.8008 9.39844C96.2956 9.39844 96.7643 9.49609 97.207 9.69141C97.6497 9.8737 98.0339 10.1276 98.3594 10.4531C98.6849 10.7786 98.9388 11.1628 99.1211 11.6055C99.3164 12.0352 99.4141 12.4974 99.4141 12.9922ZM99.1211 41H92.5V18.4609H99.1211V41Z"/>
</mask>
<path d="M36.0156 12.875L26.9141 29.1836V41H19.1602V29.6133L9.96094 12.875H17.8711L23.9844 27.0156L30.5469 12.875H36.0156ZM60.0586 29.6719C60.0586 30.8438 59.9023 31.944 59.5898 32.9727C59.2773 34.0013 58.8411 34.9518 58.2812 35.8242C57.7344 36.6966 57.0703 37.4844 56.2891 38.1875C55.5078 38.8776 54.6484 39.4635 53.7109 39.9453C52.7865 40.4271 51.7904 40.7982 50.7227 41.0586C49.668 41.319 48.5807 41.4492 47.4609 41.4492C46.3411 41.4492 45.2539 41.319 44.1992 41.0586C43.1445 40.7982 42.1484 40.4271 41.2109 39.9453C40.2865 39.4635 39.4336 38.8776 38.6523 38.1875C37.8711 37.4844 37.2005 36.6966 36.6406 35.8242C36.0938 34.9518 35.6641 34.0013 35.3516 32.9727C35.0391 31.931 34.8828 30.8307 34.8828 29.6719C34.8828 28.513 35.0391 27.4193 35.3516 26.3906C35.6641 25.349 36.0938 24.3919 36.6406 23.5195C37.2005 22.6471 37.8711 21.8659 38.6523 21.1758C39.4336 20.4727 40.2865 19.8802 41.2109 19.3984C42.1484 18.9167 43.1445 18.5456 44.1992 18.2852C45.2539 18.0247 46.3411 17.8945 47.4609 17.8945C48.5807 17.8945 49.668 18.0247 50.7227 18.2852C51.7904 18.5456 52.7865 18.9167 53.7109 19.3984C54.6484 19.8802 55.5078 20.4727 56.2891 21.1758C57.0703 21.8659 57.7344 22.6471 58.2812 23.5195C58.8411 24.3919 59.2773 25.349 59.5898 26.3906C59.9023 27.4193 60.0586 28.513 60.0586 29.6719ZM53.3398 29.6719C53.3398 29.0469 53.3008 28.3893 53.2227 27.6992C53.1576 26.9961 53.0404 26.3125 52.8711 25.6484C52.7018 24.9714 52.4674 24.3268 52.168 23.7148C51.8815 23.0898 51.5234 22.5495 51.0938 22.0938C50.6641 21.625 50.1497 21.2539 49.5508 20.9805C48.9518 20.694 48.2552 20.5508 47.4609 20.5508C46.7057 20.5508 46.0352 20.694 45.4492 20.9805C44.8633 21.2669 44.349 21.651 43.9062 22.1328C43.4766 22.6016 43.112 23.1484 42.8125 23.7734C42.526 24.3984 42.2917 25.0495 42.1094 25.7266C41.9271 26.3906 41.7969 27.0677 41.7188 27.7578C41.6406 28.4349 41.6016 29.0729 41.6016 29.6719C41.6016 30.2708 41.6406 30.9154 41.7188 31.6055C41.7969 32.2826 41.9271 32.9596 42.1094 33.6367C42.2917 34.3138 42.526 34.9648 42.8125 35.5898C43.112 36.2018 43.4766 36.7487 43.9062 37.2305C44.349 37.6992 44.8633 38.0768 45.4492 38.3633C46.0352 38.6497 46.7057 38.793 47.4609 38.793C48.2422 38.793 48.9323 38.6562 49.5312 38.3828C50.1302 38.0964 50.6445 37.7188 51.0742 37.25C51.5169 36.7812 51.8815 36.2409 52.168 35.6289C52.4544 35.0169 52.6823 34.3724 52.8516 33.6953C53.0339 33.0182 53.1576 32.3346 53.2227 31.6445C53.3008 30.9544 53.3398 30.2969 53.3398 29.6719ZM86.9531 38.2852C86.9531 40.082 86.6862 41.7747 86.1523 43.3633C85.6185 44.9518 84.8438 46.3385 83.8281 47.5234C82.8125 48.7214 81.5625 49.6654 80.0781 50.3555C78.6068 51.0586 76.9271 51.4102 75.0391 51.4102C73.9974 51.4102 72.9427 51.293 71.875 51.0586C70.8203 50.8242 69.8177 50.4596 68.8672 49.9648C67.9297 49.4831 67.0833 48.8646 66.3281 48.1094C65.5859 47.3672 65 46.4883 64.5703 45.4727L67.4219 44.3984C67.6693 45.0365 67.9883 45.6224 68.3789 46.1562C68.7826 46.6901 69.2448 47.1458 69.7656 47.5234C70.2865 47.9141 70.8594 48.2135 71.4844 48.4219C72.1094 48.6432 72.7669 48.7539 73.457 48.7539C74.7591 48.7539 75.8464 48.487 76.7188 47.9531C77.6042 47.4193 78.3138 46.7227 78.8477 45.8633C79.3815 45.0039 79.7656 44.0273 80 42.9336C80.2344 41.8529 80.3516 40.7526 80.3516 39.6328V38.3047C79.5703 39.3724 78.6263 40.1667 77.5195 40.6875C76.4258 41.1953 75.2214 41.4492 73.9062 41.4492C72.1875 41.4492 70.651 41.1432 69.2969 40.5312C67.9427 39.9193 66.7969 39.0859 65.8594 38.0312C64.9219 36.9635 64.2057 35.7135 63.7109 34.2812C63.2161 32.849 62.9688 31.3125 62.9688 29.6719C62.9688 28.0312 63.2161 26.4948 63.7109 25.0625C64.2057 23.6302 64.9219 22.3867 65.8594 21.332C66.7969 20.2643 67.9427 19.4245 69.2969 18.8125C70.651 18.2005 72.1875 17.8945 73.9062 17.8945C74.7786 17.8945 75.6055 18.0247 76.3867 18.2852C77.181 18.5456 77.9036 18.9167 78.5547 19.3984C79.2188 19.8672 79.7982 20.4401 80.293 21.1172C80.8008 21.7812 81.1979 22.5234 81.4844 23.3438L84.4141 18.4414H86.9531V38.2852ZM80.3125 29.6719C80.3125 29.0859 80.2799 28.4674 80.2148 27.8164C80.1628 27.1654 80.0651 26.5208 79.9219 25.8828C79.7786 25.2448 79.5768 24.6393 79.3164 24.0664C79.069 23.4805 78.7435 22.9661 78.3398 22.5234C77.9492 22.0677 77.474 21.7096 76.9141 21.4492C76.3542 21.1888 75.7031 21.0586 74.9609 21.0586C74.2188 21.0586 73.5742 21.1953 73.0273 21.4688C72.4805 21.7292 72.0117 22.0872 71.6211 22.543C71.2305 22.9857 70.9049 23.5 70.6445 24.0859C70.3971 24.6719 70.2018 25.2839 70.0586 25.9219C69.9154 26.5599 69.8112 27.2044 69.7461 27.8555C69.694 28.4935 69.668 29.099 69.668 29.6719C69.668 30.2448 69.694 30.8568 69.7461 31.5078C69.8112 32.1589 69.9154 32.8034 70.0586 33.4414C70.2018 34.0794 70.3971 34.6914 70.6445 35.2773C70.9049 35.8633 71.2305 36.3841 71.6211 36.8398C72.0117 37.2826 72.4805 37.6406 73.0273 37.9141C73.5742 38.1745 74.2188 38.3047 74.9609 38.3047C75.638 38.3047 76.237 38.168 76.7578 37.8945C77.2917 37.6081 77.7539 37.2305 78.1445 36.7617C78.5482 36.293 78.8867 35.7591 79.1602 35.1602C79.4336 34.5612 79.6549 33.9427 79.8242 33.3047C79.9935 32.6667 80.1172 32.0352 80.1953 31.4102C80.2734 30.7721 80.3125 30.1927 80.3125 29.6719ZM99.4141 12.9922C99.4141 13.487 99.3164 13.9557 99.1211 14.3984C98.9388 14.8411 98.6849 15.2253 98.3594 15.5508C98.0339 15.8763 97.6497 16.1367 97.207 16.332C96.7643 16.5143 96.2956 16.6055 95.8008 16.6055C95.306 16.6055 94.8372 16.5143 94.3945 16.332C93.9648 16.1367 93.5872 15.8763 93.2617 15.5508C92.9362 15.2253 92.6758 14.8411 92.4805 14.3984C92.2982 13.9557 92.207 13.487 92.207 12.9922C92.207 12.4974 92.2982 12.0352 92.4805 11.6055C92.6758 11.1628 92.9362 10.7786 93.2617 10.4531C93.5872 10.1276 93.9648 9.8737 94.3945 9.69141C94.8372 9.49609 95.306 9.39844 95.8008 9.39844C96.2956 9.39844 96.7643 9.49609 97.207 9.69141C97.6497 9.8737 98.0339 10.1276 98.3594 10.4531C98.6849 10.7786 98.9388 11.1628 99.1211 11.6055C99.3164 12.0352 99.4141 12.4974 99.4141 12.9922ZM99.1211 41H92.5V18.4609H99.1211V41Z" fill="#E97451"/>
<path d="M36.0156 12.875L36.7142 13.2649L37.3782 12.075H36.0156V12.875ZM26.9141 29.1836L26.2155 28.7937L26.1141 28.9755V29.1836H26.9141ZM26.9141 41V41.8H27.7141V41H26.9141ZM19.1602 41H18.3602V41.8H19.1602V41ZM19.1602 29.6133H19.9602V29.4079L19.8612 29.228L19.1602 29.6133ZM9.96094 12.875V12.075H8.6084L9.25984 13.2603L9.96094 12.875ZM17.8711 12.875L18.6054 12.5575L18.3968 12.075H17.8711V12.875ZM23.9844 27.0156L23.2501 27.3331L23.9585 28.9718L24.71 27.3524L23.9844 27.0156ZM30.5469 12.875V12.075H30.0362L29.8212 12.5382L30.5469 12.875ZM35.3171 12.4851L26.2155 28.7937L27.6126 29.5735L36.7142 13.2649L35.3171 12.4851ZM26.1141 29.1836V41H27.7141V29.1836H26.1141ZM26.9141 40.2H19.1602V41.8H26.9141V40.2ZM19.9602 41V29.6133H18.3602V41H19.9602ZM19.8612 29.228L10.662 12.4897L9.25984 13.2603L18.4591 29.9986L19.8612 29.228ZM9.96094 13.675H17.8711V12.075H9.96094V13.675ZM17.1368 13.1925L23.2501 27.3331L24.7187 26.6982L18.6054 12.5575L17.1368 13.1925ZM24.71 27.3524L31.2725 13.2118L29.8212 12.5382L23.2587 26.6789L24.71 27.3524ZM30.5469 13.675H36.0156V12.075H30.5469V13.675ZM58.2812 35.8242L57.6079 35.3921L57.6034 35.3993L58.2812 35.8242ZM56.2891 38.1875L56.8187 38.7871L56.8242 38.7821L56.2891 38.1875ZM53.7109 39.9453L53.3453 39.2338L53.3412 39.2359L53.7109 39.9453ZM50.7227 41.0586L50.5331 40.2814L50.5309 40.2819L50.7227 41.0586ZM41.2109 39.9453L40.8412 40.6548L40.8453 40.6569L41.2109 39.9453ZM38.6523 38.1875L38.1171 38.7822L38.1227 38.7871L38.6523 38.1875ZM36.6406 35.8242L35.9628 36.2492L35.9674 36.2563L36.6406 35.8242ZM35.3516 32.9727L34.5853 33.2025L34.5861 33.2052L35.3516 32.9727ZM35.3516 26.3906L36.117 26.6232L36.1178 26.6205L35.3516 26.3906ZM36.6406 23.5195L35.9673 23.0874L35.9628 23.0946L36.6406 23.5195ZM38.6523 21.1758L39.182 21.7754L39.1875 21.7704L38.6523 21.1758ZM41.2109 19.3984L40.8453 18.6869L40.8412 18.689L41.2109 19.3984ZM50.7227 18.2852L50.5309 19.0618L50.5331 19.0624L50.7227 18.2852ZM53.7109 19.3984L53.3412 20.1079L53.3453 20.11L53.7109 19.3984ZM56.2891 21.1758L55.7539 21.7704L55.7594 21.7754L56.2891 21.1758ZM58.2812 23.5195L57.6034 23.9445L57.608 23.9516L58.2812 23.5195ZM59.5898 26.3906L58.8236 26.6205L58.8244 26.6232L59.5898 26.3906ZM53.2227 27.6992L52.4261 27.773L52.4268 27.7811L52.4277 27.7892L53.2227 27.6992ZM52.8711 25.6484L52.095 25.8425L52.0959 25.846L52.8711 25.6484ZM52.168 23.7148L51.4407 24.0482L51.4449 24.0574L51.4494 24.0665L52.168 23.7148ZM51.0938 22.0938L50.504 22.6344L50.5117 22.6426L51.0938 22.0938ZM49.5508 20.9805L49.2056 21.7022L49.2121 21.7053L49.2185 21.7082L49.5508 20.9805ZM45.4492 20.9805L45.8006 21.6992L45.4492 20.9805ZM43.9062 22.1328L43.3172 21.5915L43.3165 21.5922L43.9062 22.1328ZM42.8125 23.7734L42.0909 23.4277L42.0852 23.4401L42.8125 23.7734ZM42.1094 25.7266L42.8808 25.9383L42.8819 25.9345L42.1094 25.7266ZM41.7188 27.7578L42.5135 27.8495L42.5137 27.8478L41.7188 27.7578ZM41.7188 31.6055L40.9238 31.6955L40.924 31.6972L41.7188 31.6055ZM42.8125 35.5898L42.0852 35.9232L42.0895 35.9324L42.0939 35.9415L42.8125 35.5898ZM43.9062 37.2305L43.3092 37.763L43.3168 37.7715L43.3246 37.7798L43.9062 37.2305ZM49.5312 38.3828L49.8635 39.1106L49.87 39.1076L49.8764 39.1045L49.5312 38.3828ZM51.0742 37.25L50.4925 36.7006L50.4845 36.7094L51.0742 37.25ZM52.168 35.6289L51.4434 35.2898L52.168 35.6289ZM52.8516 33.6953L52.0791 33.4873L52.0772 33.4943L52.0754 33.5013L52.8516 33.6953ZM53.2227 31.6445L52.4277 31.5545L52.4269 31.562L52.4262 31.5694L53.2227 31.6445ZM59.2586 29.6719C59.2586 30.772 59.112 31.7933 58.8244 32.7401L60.3553 33.2052C60.6927 32.0947 60.8586 30.9155 60.8586 29.6719H59.2586ZM58.8244 32.7401C58.5325 33.7009 58.1267 34.584 57.608 35.3921L58.9545 36.2563C59.5556 35.3197 60.0222 34.3017 60.3553 33.2052L58.8244 32.7401ZM57.6034 35.3993C57.0968 36.2075 56.4811 36.9384 55.7539 37.5929L56.8242 38.7821C57.6595 38.0304 58.3719 37.1858 58.9591 36.2491L57.6034 35.3993ZM55.7594 37.5879C55.0285 38.2335 54.2244 38.782 53.3453 39.2338L54.0766 40.6569C55.0725 40.1451 55.9871 39.5217 56.8187 38.7871L55.7594 37.5879ZM53.3412 39.2359C52.4769 39.6863 51.5416 40.0354 50.5331 40.2814L50.9122 41.8358C52.0391 41.561 53.0961 41.1679 54.0807 40.6548L53.3412 39.2359ZM50.5309 40.2819C49.5409 40.5264 48.5181 40.6492 47.4609 40.6492V42.2492C48.6434 42.2492 49.7951 42.1116 50.9144 41.8353L50.5309 40.2819ZM47.4609 40.6492C46.4038 40.6492 45.381 40.5264 44.391 40.2819L44.0074 41.8353C45.1268 42.1116 46.2785 42.2492 47.4609 42.2492V40.6492ZM44.391 40.2819C43.3947 40.0359 42.4572 39.6863 41.5766 39.2338L40.8453 40.6569C41.8397 41.1679 42.8943 41.5604 44.0074 41.8353L44.391 40.2819ZM41.5806 39.2359C40.7137 38.7841 39.9146 38.235 39.182 37.5879L38.1227 38.7871C38.9526 39.5202 39.8592 40.143 40.8412 40.6548L41.5806 39.2359ZM39.1875 37.5929C38.4586 36.9368 37.8347 36.2036 37.3139 35.3921L35.9674 36.2563C36.5664 37.1897 37.2836 38.0319 38.1172 38.7821L39.1875 37.5929ZM37.3185 35.3993C36.8108 34.5895 36.4099 33.704 36.117 32.7401L34.5861 33.2052C34.9183 34.2986 35.3767 35.3142 35.9628 36.2491L37.3185 35.3993ZM36.1178 32.7428C35.8291 31.7804 35.6828 30.758 35.6828 29.6719H34.0828C34.0828 30.9035 34.249 32.0816 34.5853 33.2025L36.1178 32.7428ZM35.6828 29.6719C35.6828 28.5857 35.8291 27.5708 36.117 26.6232L34.5861 26.1581C34.249 27.2678 34.0828 28.4403 34.0828 29.6719H35.6828ZM36.1178 26.6205C36.4109 25.6437 36.8117 24.7528 37.3185 23.9444L35.9628 23.0946C35.3758 24.0311 34.9172 25.0543 34.5853 26.1607L36.1178 26.6205ZM37.3139 23.9516C37.8336 23.1418 38.4558 22.4168 39.182 21.7754L38.1227 20.5762C37.2864 21.315 36.5674 22.1525 35.9674 23.0874L37.3139 23.9516ZM39.1875 21.7704C39.9191 21.112 40.7164 20.5582 41.5806 20.1079L40.8412 18.689C39.8565 19.2022 38.9481 19.8333 38.1172 20.5811L39.1875 21.7704ZM41.5766 20.11C42.4572 19.6575 43.3947 19.3078 44.391 19.0618L44.0074 17.5085C42.8943 17.7833 41.8397 18.1759 40.8453 18.6869L41.5766 20.11ZM44.391 19.0618C45.381 18.8174 46.4038 18.6945 47.4609 18.6945V17.0945C46.2785 17.0945 45.1268 17.2321 44.0074 17.5085L44.391 19.0618ZM47.4609 18.6945C48.5181 18.6945 49.5409 18.8174 50.5309 19.0618L50.9144 17.5085C49.7951 17.2321 48.6434 17.0945 47.4609 17.0945V18.6945ZM50.5331 19.0624C51.5416 19.3084 52.4769 19.6574 53.3412 20.1079L54.0807 18.689C53.0961 18.1759 52.0391 17.7828 50.9122 17.5079L50.5331 19.0624ZM53.3453 20.11C54.2217 20.5603 55.024 21.1135 55.7539 21.7704L56.8242 20.5811C55.9916 19.8318 55.0752 19.2001 54.0766 18.6869L53.3453 20.11ZM55.7594 21.7754C56.4839 22.4153 57.0978 23.1379 57.6034 23.9444L58.9591 23.0946C58.3709 22.1564 57.6567 21.3165 56.8187 20.5762L55.7594 21.7754ZM57.608 23.9516C58.1257 24.7583 58.5315 25.6467 58.8236 26.6205L60.3561 26.1607C60.0232 25.0512 59.5566 24.0256 58.9545 23.0874L57.608 23.9516ZM58.8244 26.6232C59.1123 27.5708 59.2586 28.5857 59.2586 29.6719H60.8586C60.8586 28.4403 60.6924 27.2678 60.3553 26.1581L58.8244 26.6232ZM54.1398 29.6719C54.1398 29.0137 54.0987 28.326 54.0176 27.6092L52.4277 27.7892C52.5028 28.4527 52.5398 29.08 52.5398 29.6719H54.1398ZM54.0192 27.6255C53.9504 26.8818 53.8262 26.1568 53.6463 25.4508L52.0959 25.846C52.2545 26.4682 52.3647 27.1104 52.4261 27.773L54.0192 27.6255ZM53.6472 25.4544C53.4647 24.7242 53.2113 24.0268 52.8865 23.3632L51.4494 24.0665C51.7236 24.6269 51.939 25.2185 52.095 25.8425L53.6472 25.4544ZM52.8952 23.3815C52.576 22.685 52.1709 22.07 51.6758 21.5449L50.5117 22.6426C50.876 23.029 51.1871 23.4947 51.4407 24.0482L52.8952 23.3815ZM51.6835 21.5532C51.1788 21.0026 50.5759 20.5691 49.883 20.2527L49.2185 21.7082C49.7235 21.9388 50.1493 22.2474 50.504 22.6343L51.6835 21.5532ZM49.8959 20.2588C49.1701 19.9116 48.3515 19.7508 47.4609 19.7508V21.3508C48.1589 21.3508 48.7335 21.4764 49.2056 21.7022L49.8959 20.2588ZM47.4609 19.7508C46.6032 19.7508 45.8092 19.914 45.0979 20.2618L45.8006 21.6992C46.2611 21.474 46.8083 21.3508 47.4609 21.3508V19.7508ZM45.0979 20.2618C44.422 20.5922 43.8272 21.0365 43.3172 21.5915L44.4953 22.6741C44.8708 22.2655 45.3045 21.9417 45.8006 21.6992L45.0979 20.2618ZM43.3165 21.5922C42.829 22.1241 42.4216 22.738 42.091 23.4277L43.534 24.1191C43.8024 23.5589 44.1241 23.0791 44.496 22.6734L43.3165 21.5922ZM42.0852 23.4401C41.7799 24.1064 41.5305 24.7994 41.3369 25.5186L42.8819 25.9345C43.0528 25.2996 43.2722 24.6905 43.5398 24.1068L42.0852 23.4401ZM41.3379 25.5148C41.1446 26.2191 41.0066 26.9369 40.9238 27.6678L42.5137 27.8478C42.5872 27.1985 42.7096 26.5621 42.8808 25.9383L41.3379 25.5148ZM40.924 27.6661C40.8429 28.3696 40.8016 29.0384 40.8016 29.6719H42.4016C42.4016 29.1074 42.4384 28.5002 42.5135 27.8495L40.924 27.6661ZM40.8016 29.6719C40.8016 30.3052 40.8428 30.9801 40.9238 31.6955L42.5137 31.5155C42.4384 30.8507 42.4016 30.2365 42.4016 29.6719H40.8016ZM40.924 31.6972C41.0068 32.4146 41.1446 33.1306 41.3369 33.8447L42.8819 33.4287C42.7096 32.7887 42.5869 32.1505 42.5135 31.5138L40.924 31.6972ZM41.3369 33.8447C41.5305 34.5639 41.7799 35.2569 42.0852 35.9232L43.5398 35.2565C43.2722 34.6728 43.0528 34.0637 42.8819 33.4287L41.3369 33.8447ZM42.0939 35.9415C42.4237 36.6154 42.8283 37.2238 43.3092 37.763L44.5033 36.698C44.1248 36.2736 43.8003 35.7883 43.5311 35.2382L42.0939 35.9415ZM43.3246 37.7798C43.8341 38.3192 44.4266 38.7538 45.0979 39.082L45.8006 37.6446C45.2999 37.3998 44.8638 37.0793 44.4879 36.6812L43.3246 37.7798ZM45.0979 39.082C45.8092 39.4298 46.6032 39.593 47.4609 39.593V37.993C46.8083 37.993 46.2611 37.8697 45.8006 37.6446L45.0979 39.082ZM47.4609 39.593C48.3357 39.593 49.1426 39.4397 49.8635 39.1106L49.199 37.6551C48.722 37.8728 48.1487 37.993 47.4609 37.993V39.593ZM49.8764 39.1045C50.5636 38.7759 51.162 38.3381 51.6639 37.7906L50.4845 36.7094C50.127 37.0994 49.6968 37.4168 49.1861 37.6611L49.8764 39.1045ZM51.6558 37.7993C52.1598 37.2656 52.5717 36.6535 52.8925 35.9681L51.4434 35.2898C51.1914 35.8282 50.874 36.2969 50.4926 36.7007L51.6558 37.7993ZM52.8925 35.9681C53.2015 35.308 53.4463 34.6147 53.6277 33.8893L52.0754 33.5013C51.9182 34.1301 51.7074 34.7259 51.4434 35.2898L52.8925 35.9681ZM53.6241 33.9033C53.8179 33.1832 53.9497 32.4552 54.0191 31.7197L52.4262 31.5694C52.3654 32.2141 52.2498 32.8533 52.0791 33.4873L53.6241 33.9033ZM54.0176 31.7345C54.0987 31.0178 54.1398 30.33 54.1398 29.6719H52.5398C52.5398 30.2637 52.5028 30.8911 52.4277 31.5545L54.0176 31.7345ZM83.8281 47.5234L83.2207 47.0028L83.2179 47.0061L83.8281 47.5234ZM80.0781 50.3555L79.7408 49.63L79.7332 49.6337L80.0781 50.3555ZM71.875 51.0586L71.7015 51.8395L71.7035 51.84L71.875 51.0586ZM68.8672 49.9648L69.2366 49.2552L69.2328 49.2533L68.8672 49.9648ZM64.5703 45.4727L64.2883 44.724L63.5091 45.0175L63.8335 45.7844L64.5703 45.4727ZM67.4219 44.3984L68.1678 44.1092L67.8813 43.3705L67.1399 43.6498L67.4219 44.3984ZM68.3789 46.1562L67.7332 46.6287L67.7408 46.6387L68.3789 46.1562ZM69.7656 47.5234L70.2457 46.8834L70.2352 46.8757L69.7656 47.5234ZM71.4844 48.4219L71.7515 47.6678L71.7444 47.6653L71.7374 47.6629L71.4844 48.4219ZM76.7188 47.9531L76.3057 47.268L76.3012 47.2708L76.7188 47.9531ZM80 42.9336L79.2182 42.764L79.2178 42.766L80 42.9336ZM80.3516 38.3047H81.1516V35.8566L79.7059 37.8323L80.3516 38.3047ZM77.5195 40.6875L77.8564 41.4131L77.8602 41.4114L77.5195 40.6875ZM65.8594 38.0312L65.2582 38.5591L65.2614 38.5627L65.8594 38.0312ZM63.7109 34.2812L62.9548 34.5425L63.7109 34.2812ZM63.7109 25.0625L62.9548 24.8013L63.7109 25.0625ZM65.8594 21.332L66.4573 21.8635L66.4605 21.8599L65.8594 21.332ZM76.3867 18.2852L76.1337 19.0441L76.1375 19.0453L76.3867 18.2852ZM78.5547 19.3984L78.0788 20.0415L78.086 20.0468L78.0933 20.052L78.5547 19.3984ZM80.293 21.1172L79.6471 21.5892L79.6522 21.5962L79.6575 21.6031L80.293 21.1172ZM81.4844 23.3438L80.7291 23.6075L81.2933 25.223L82.1711 23.7541L81.4844 23.3438ZM84.4141 18.4414V17.6414H83.9602L83.7273 18.031L84.4141 18.4414ZM86.9531 18.4414H87.7531V17.6414H86.9531V18.4414ZM80.2148 27.8164L79.4174 27.8802L79.418 27.8881L79.4188 27.896L80.2148 27.8164ZM79.3164 24.0664L78.5794 24.3776L78.5836 24.3876L78.5881 24.3974L79.3164 24.0664ZM78.3398 22.5234L77.7324 23.0441L77.7404 23.0534L77.7487 23.0624L78.3398 22.5234ZM73.0273 21.4688L73.3713 22.191L73.3782 22.1877L73.3851 22.1843L73.0273 21.4688ZM71.6211 22.543L72.221 23.0723L72.2285 23.0636L71.6211 22.543ZM70.6445 24.0859L69.9135 23.761L69.9104 23.7679L69.9075 23.7748L70.6445 24.0859ZM69.7461 27.8555L68.9501 27.7759L68.9493 27.7831L68.9487 27.7904L69.7461 27.8555ZM69.7461 31.5078L68.9486 31.5716L68.9493 31.5795L68.9501 31.5874L69.7461 31.5078ZM70.6445 35.2773L69.9075 35.5885L69.9104 35.5954L69.9135 35.6023L70.6445 35.2773ZM71.6211 36.8398L71.0136 37.3605L71.0212 37.3691L71.6211 36.8398ZM73.0273 37.9141L72.6696 38.6296L72.6765 38.633L72.6834 38.6364L73.0273 37.9141ZM76.7578 37.8945L77.1297 38.6029L77.1361 38.5995L76.7578 37.8945ZM78.1445 36.7617L77.5382 36.2396L77.53 36.2496L78.1445 36.7617ZM80.1953 31.4102L80.9891 31.5094L80.9894 31.5074L80.1953 31.4102ZM86.1531 38.2852C86.1531 40.0017 85.8983 41.6078 85.394 43.1084L86.9107 43.6181C87.4741 41.9417 87.7531 40.1624 87.7531 38.2852H86.1531ZM85.394 43.1084C84.8905 44.6068 84.1646 45.9016 83.2207 47.0028L84.4355 48.0441C85.5229 46.7755 86.3465 45.2969 86.9107 43.6181L85.394 43.1084ZM83.2179 47.0061C82.2803 48.112 81.1248 48.9866 79.7409 49.63L80.4154 51.0809C82.0002 50.3441 83.3447 49.3307 84.4383 48.0408L83.2179 47.0061ZM79.7332 49.6337C78.3853 50.2778 76.8265 50.6102 75.0391 50.6102V52.2102C77.0277 52.2102 78.8282 51.8394 80.4231 51.0773L79.7332 49.6337ZM75.0391 50.6102C74.0578 50.6102 73.0607 50.4998 72.0465 50.2772L71.7035 51.84C72.8247 52.0861 73.9369 52.2102 75.0391 52.2102V50.6102ZM72.0485 50.2776C71.0614 50.0583 70.1247 49.7175 69.2366 49.2552L68.4978 50.6745C69.5107 51.2017 70.5792 51.5902 71.7015 51.8395L72.0485 50.2776ZM69.2328 49.2533C68.3702 48.81 67.5911 48.241 66.8938 47.5437L65.7624 48.6751C66.5756 49.4882 67.4892 50.1562 68.5015 50.6764L69.2328 49.2533ZM66.8938 47.5437C66.2281 46.878 65.6987 46.0866 65.3071 45.1609L63.8335 45.7844C64.3013 46.89 64.9437 47.8564 65.7624 48.6751L66.8938 47.5437ZM64.8523 46.2213L67.7039 45.1471L67.1399 43.6498L64.2883 44.724L64.8523 46.2213ZM66.676 44.6877C66.9478 45.3886 67.3 46.0365 67.7333 46.6287L69.0245 45.6838C68.6766 45.2083 68.3908 44.6843 68.1678 44.1092L66.676 44.6877ZM67.7408 46.6387C68.1902 47.2331 68.7086 47.7452 69.2961 48.1711L70.2352 46.8757C69.781 46.5464 69.3749 46.1471 69.017 45.6738L67.7408 46.6387ZM69.2856 48.1634C69.8761 48.6063 70.5258 48.9456 71.2314 49.1808L71.7374 47.6629C71.1929 47.4815 70.6968 47.2218 70.2456 46.8834L69.2856 48.1634ZM71.2173 49.176C71.9315 49.4289 72.6797 49.5539 73.457 49.5539V47.9539C72.8542 47.9539 72.2872 47.8575 71.7515 47.6678L71.2173 49.176ZM73.457 49.5539C74.8668 49.5539 76.1082 49.2647 77.1363 48.6355L76.3012 47.2708C75.5845 47.7093 74.6515 47.9539 73.457 47.9539V49.5539ZM77.1318 48.6382C78.1231 48.0405 78.9251 47.2547 79.5272 46.2854L78.1681 45.4411C77.7025 46.1906 77.0852 46.798 76.3057 47.268L77.1318 48.6382ZM79.5272 46.2854C80.1146 45.3399 80.5306 44.2756 80.7822 43.1012L79.2178 42.766C79.0007 43.7791 78.6485 44.6679 78.1681 45.4411L79.5272 46.2854ZM80.7818 43.1031C81.0284 41.966 81.1516 40.8089 81.1516 39.6328H79.5516C79.5516 40.6963 79.4403 41.7397 79.2182 42.764L80.7818 43.1031ZM81.1516 39.6328V38.3047H79.5516V39.6328H81.1516ZM79.7059 37.8323C78.9971 38.801 78.1548 39.5044 77.1789 39.9636L77.8602 41.4114C79.0978 40.8289 80.1435 39.9438 80.9972 38.7771L79.7059 37.8323ZM77.1826 39.9619C76.2037 40.4164 75.1157 40.6492 73.9062 40.6492V42.2492C75.327 42.2492 76.6479 41.9742 77.8564 41.4131L77.1826 39.9619ZM73.9062 40.6492C72.2834 40.6492 70.862 40.3607 69.6263 39.8022L68.9674 41.2603C70.4401 41.9258 72.0916 42.2492 73.9062 42.2492V40.6492ZM69.6263 39.8022C68.369 39.234 67.3162 38.4661 66.4573 37.4998L65.2614 38.5627C66.2775 39.7058 67.5164 40.6045 68.9674 41.2603L69.6263 39.8022ZM66.4605 37.5034C65.596 36.5188 64.9303 35.3608 64.4671 34.02L62.9548 34.5425C63.4812 36.0662 64.2478 37.4083 65.2582 38.5591L66.4605 37.5034ZM64.4671 34.02C64.0036 32.6784 63.7687 31.2309 63.7687 29.6719H62.1688C62.1688 31.3941 62.4287 33.0195 62.9548 34.5425L64.4671 34.02ZM63.7687 29.6719C63.7687 28.1128 64.0036 26.6653 64.4671 25.3237L62.9548 24.8013C62.4287 26.3243 62.1688 27.9497 62.1688 29.6719H63.7687ZM64.4671 25.3237C64.93 23.9836 65.5949 22.8337 66.4573 21.8635L65.2614 20.8005C64.2489 21.9397 63.4814 23.2768 62.9548 24.8013L64.4671 25.3237ZM66.4605 21.8599C67.3194 20.8817 68.3712 20.1088 69.6263 19.5415L68.9674 18.0835C67.5143 18.7402 66.2744 19.6469 65.2582 20.8042L66.4605 21.8599ZM69.6263 19.5415C70.862 18.9831 72.2834 18.6945 73.9062 18.6945V17.0945C72.0916 17.0945 70.4401 17.4179 68.9674 18.0835L69.6263 19.5415ZM73.9062 18.6945C74.6978 18.6945 75.4388 18.8125 76.1337 19.0441L76.6397 17.5262C75.7721 17.237 74.8595 17.0945 73.9062 17.0945V18.6945ZM76.1375 19.0453C76.8531 19.28 77.4988 19.6123 78.0788 20.0415L79.0306 18.7554C78.3085 18.2211 77.5089 17.8112 76.636 17.525L76.1375 19.0453ZM78.0933 20.052C78.6842 20.4691 79.2019 20.98 79.6471 21.5892L80.9389 20.6452C80.3945 19.9002 79.7533 19.2653 79.016 18.7449L78.0933 20.052ZM79.6575 21.6031C80.1119 22.1973 80.4695 22.864 80.7291 23.6075L82.2396 23.08C81.9264 22.1829 81.4897 21.3652 80.9285 20.6312L79.6575 21.6031ZM82.1711 23.7541L85.1008 18.8518L83.7273 18.031L80.7977 22.9334L82.1711 23.7541ZM84.4141 19.2414H86.9531V17.6414H84.4141V19.2414ZM86.1531 18.4414V38.2852H87.7531V18.4414H86.1531ZM81.1125 29.6719C81.1125 29.0565 81.0783 28.4113 81.0109 27.7368L79.4188 27.896C79.4816 28.5236 79.5125 29.1154 79.5125 29.6719H81.1125ZM81.0123 27.7526C80.9572 27.064 80.8539 26.3823 80.7024 25.7076L79.1413 26.058C79.2763 26.6594 79.3683 27.2667 79.4174 27.8802L81.0123 27.7526ZM80.7024 25.7076C80.5477 25.0181 80.3287 24.3602 80.0447 23.7354L78.5881 24.3974C78.8249 24.9184 79.0096 25.4715 79.1413 26.058L80.7024 25.7076ZM80.0534 23.7552C79.7729 23.0908 79.3995 22.4983 78.931 21.9844L77.7487 23.0624C78.0874 23.434 78.3652 23.8701 78.5794 24.3776L80.0534 23.7552ZM78.9473 22.0028C78.4801 21.4578 77.9119 21.031 77.2514 20.7238L76.5767 22.1746C77.036 22.3883 77.4183 22.6776 77.7324 23.0441L78.9473 22.0028ZM77.2514 20.7238C76.5667 20.4054 75.7965 20.2586 74.9609 20.2586V21.8586C75.6097 21.8586 76.1416 21.9722 76.5767 22.1746L77.2514 20.7238ZM74.9609 20.2586C74.1208 20.2586 73.3488 20.4136 72.6696 20.7532L73.3851 22.1843C73.7996 21.977 74.3167 21.8586 74.9609 21.8586V20.2586ZM72.6834 20.7465C72.0365 21.0545 71.4778 21.4809 71.0137 22.0223L72.2285 23.0636C72.5457 22.6936 72.9244 22.4038 73.3713 22.191L72.6834 20.7465ZM71.0212 22.0137C70.5723 22.5225 70.2041 23.1071 69.9135 23.761L71.3756 24.4108C71.6058 23.8929 71.8886 23.4489 72.221 23.0723L71.0212 22.0137ZM69.9075 23.7748C69.6411 24.4058 69.4314 25.0634 69.278 25.7466L70.8392 26.0971C70.9722 25.5043 71.1532 24.9379 71.3815 24.3971L69.9075 23.7748ZM69.278 25.7466C69.1277 26.4162 69.0184 27.0927 68.9501 27.7759L70.5421 27.9351C70.604 27.3162 70.703 26.7036 70.8392 26.0971L69.278 25.7466ZM68.9487 27.7904C68.8951 28.4476 68.868 29.0749 68.868 29.6719H70.468C70.468 29.123 70.4929 28.5394 70.5434 27.9206L68.9487 27.7904ZM68.868 29.6719C68.868 30.2688 68.8951 30.9022 68.9486 31.5716L70.5435 31.444C70.4929 30.8113 70.468 30.2208 70.468 29.6719H68.868ZM68.9501 31.5874C69.0184 32.2706 69.1277 32.9471 69.278 33.6166L70.8392 33.2662C70.703 32.6597 70.604 32.0471 70.5421 31.4282L68.9501 31.5874ZM69.278 33.6166C69.4314 34.2999 69.6411 34.9574 69.9075 35.5885L71.3815 34.9662C71.1532 34.4254 70.9722 33.859 70.8392 33.2662L69.278 33.6166ZM69.9135 35.6023C70.2033 36.2542 70.5692 36.842 71.0137 37.3605L72.2285 36.3192C71.8917 35.9263 71.6066 35.4723 71.3756 34.9524L69.9135 35.6023ZM71.0212 37.3691C71.4823 37.8917 72.0341 38.3119 72.6696 38.6296L73.3851 37.1985C72.9268 36.9694 72.5412 36.6735 72.221 36.3105L71.0212 37.3691ZM72.6834 38.6364C73.3591 38.9581 74.126 39.1047 74.9609 39.1047V37.5047C74.3115 37.5047 73.7893 37.3908 73.3713 37.1918L72.6834 38.6364ZM74.9609 39.1047C75.7479 39.1047 76.4779 38.945 77.1297 38.6028L76.3859 37.1862C75.9961 37.3909 75.5282 37.5047 74.9609 37.5047V39.1047ZM77.1361 38.5995C77.761 38.2641 78.3033 37.8209 78.7591 37.2739L77.53 36.2496C77.2045 36.6401 76.8223 36.952 76.3796 37.1896L77.1361 38.5995ZM78.7507 37.2837C79.2067 36.7542 79.5851 36.1556 79.8879 35.4924L78.4324 34.8279C78.1883 35.3626 77.8896 35.8317 77.5383 36.2397L78.7507 37.2837ZM79.8879 35.4924C80.1801 34.8523 80.4167 34.1913 80.5975 33.5098L79.051 33.0995C78.8932 33.6941 78.6871 34.2701 78.4324 34.8279L79.8879 35.4924ZM80.5975 33.5098C80.7755 32.8387 80.9063 32.1718 80.9891 31.5094L79.4015 31.3109C79.328 31.8985 79.2114 32.4947 79.051 33.0995L80.5975 33.5098ZM80.9894 31.5074C81.0706 30.8442 81.1125 30.2317 81.1125 29.6719H79.5125C79.5125 30.1537 79.4763 30.7 79.4012 31.3129L80.9894 31.5074ZM99.1211 14.3984L98.3892 14.0755L98.3851 14.0846L98.3813 14.0938L99.1211 14.3984ZM97.207 16.332L97.5116 17.0718L97.5208 17.068L97.5299 17.064L97.207 16.332ZM94.3945 16.332L94.0635 17.0603L94.0766 17.0663L94.0899 17.0718L94.3945 16.332ZM92.4805 14.3984L91.7407 14.703L91.7445 14.7122L91.7485 14.7213L92.4805 14.3984ZM92.4805 11.6055L91.7485 11.2825L91.744 11.293L92.4805 11.6055ZM94.3945 9.69141L94.707 10.4279L94.7174 10.4233L94.3945 9.69141ZM97.207 9.69141L96.8841 10.4233L96.8932 10.4274L96.9024 10.4311L97.207 9.69141ZM99.1211 11.6055L98.3813 11.9101L98.3868 11.9234L98.3928 11.9365L99.1211 11.6055ZM99.1211 41V41.8H99.9211V41H99.1211ZM92.5 41H91.7V41.8H92.5V41ZM92.5 18.4609V17.6609H91.7V18.4609H92.5ZM99.1211 18.4609H99.9211V17.6609H99.1211V18.4609ZM98.6141 12.9922C98.6141 13.3784 98.5386 13.7369 98.3892 14.0755L99.853 14.7213C100.094 14.1746 100.214 13.5956 100.214 12.9922H98.6141ZM98.3813 14.0938C98.2376 14.4429 98.0415 14.7372 97.7937 14.9851L98.9251 16.1165C99.3283 15.7133 99.64 15.2394 99.8608 14.703L98.3813 14.0938ZM97.7937 14.9851C97.5416 15.2371 97.241 15.4426 96.8841 15.6001L97.5299 17.064C98.0585 16.8308 98.5261 16.5155 98.9251 16.1165L97.7937 14.9851ZM96.9024 15.5923C96.5596 15.7335 96.1946 15.8055 95.8008 15.8055V17.4055C96.3965 17.4055 96.9691 17.2952 97.5116 17.0718L96.9024 15.5923ZM95.8008 15.8055C95.4069 15.8055 95.042 15.7335 94.6991 15.5923L94.0899 17.0718C94.6325 17.2952 95.2051 17.4055 95.8008 17.4055V15.8055ZM94.7256 15.6037C94.381 15.4471 94.0834 15.2411 93.8274 14.9851L92.696 16.1165C93.0911 16.5115 93.5487 16.8263 94.0635 17.0603L94.7256 15.6037ZM93.8274 14.9851C93.5754 14.7331 93.3699 14.4324 93.2124 14.0755L91.7485 14.7213C91.9817 15.2499 92.297 15.7175 92.696 16.1165L93.8274 14.9851ZM93.2202 14.0938C93.079 13.751 93.007 13.3861 93.007 12.9922H91.407C91.407 13.5879 91.5173 14.1605 91.7407 14.703L93.2202 14.0938ZM93.007 12.9922C93.007 12.5982 93.0791 12.2429 93.2169 11.9179L91.744 11.293C91.5173 11.8274 91.407 12.3966 91.407 12.9922H93.007ZM93.2124 11.9284C93.3699 11.5715 93.5754 11.2708 93.8274 11.0188L92.696 9.88744C92.297 10.2864 91.9817 10.754 91.7485 11.2826L93.2124 11.9284ZM93.8274 11.0188C94.0792 10.767 94.3705 10.5706 94.707 10.4279L94.0821 8.95494C93.5592 9.17679 93.0952 9.48823 92.696 9.88744L93.8274 11.0188ZM94.7174 10.4233C95.0561 10.2739 95.4146 10.1984 95.8008 10.1984V8.59844C95.1974 8.59844 94.6184 8.71825 94.0716 8.95947L94.7174 10.4233ZM95.8008 10.1984C96.187 10.1984 96.5455 10.2739 96.8841 10.4233L97.5299 8.95947C96.9832 8.71825 96.4042 8.59844 95.8008 8.59844V10.1984ZM96.9024 10.4311C97.2515 10.5749 97.5458 10.771 97.7937 11.0188L98.9251 9.88744C98.5219 9.48425 98.048 9.17253 97.5116 8.95166L96.9024 10.4311ZM97.7937 11.0188C98.0415 11.2667 98.2376 11.561 98.3813 11.9101L99.8608 11.3009C99.64 10.7645 99.3283 10.2906 98.9251 9.88744L97.7937 11.0188ZM98.3928 11.9365C98.5386 12.2572 98.6141 12.606 98.6141 12.9922H100.214C100.214 12.3888 100.094 11.8131 99.8494 11.2744L98.3928 11.9365ZM99.1211 40.2H92.5V41.8H99.1211V40.2ZM93.3 41V18.4609H91.7V41H93.3ZM92.5 19.2609H99.1211V17.6609H92.5V19.2609ZM98.3211 18.4609V41H99.9211V18.4609H98.3211Z" fill="#E97451" mask="url(#path-1-outside-1_72_1587)"/>
</svg>
