<svg width="56" height="56" viewBox="0 0 56 56" fill="none" xmlns="http://www.w3.org/2000/svg">
<path d="M40 22.3333H16C15.4533 22.3333 15 21.88 15 21.3333C15 20.7867 15.4533 20.3333 16 20.3333H40C40.5467 20.3333 41 20.7867 41 21.3333C41 21.88 40.5467 22.3333 40 22.3333Z" fill="#494949"/>
<path d="M40 29H16C15.4533 29 15 28.5467 15 28C15 27.4533 15.4533 27 16 27H40C40.5467 27 41 27.4533 41 28C41 28.5467 40.5467 29 40 29Z" fill="#494949"/>
<path d="M40 35.6667H16C15.4533 35.6667 15 35.2133 15 34.6667C15 34.12 15.4533 33.6667 16 33.6667H40C40.5467 33.6667 41 34.12 41 34.6667C41 35.2133 40.5467 35.6667 40 35.6667Z" fill="#494949"/>
</svg>
