  <svg
          xmlns="http://www.w3.org/2000/svg"
          width="1280"
          height="539"
          viewBox="0 0 1280 539"
          fill="none"
        >
          <g filter="url(#filter0_d_72_1609)">
            <path
              d="M1189.5 149.208C1302.15 107.726 1278.5 48 1278.5 -7.62939e-06C1278.5 -45.6636 121.435 -4.89795 8.79285 -0.82114C3.41797 -0.626612 0.00012207 3.81886 0.00012207 9.19724V497.264C0.00012207 503.401 5.47949 508.186 11.559 507.352C32.2656 504.513 79.1185 498.41 165.516 487.836C303.858 470.904 363.147 406.353 397.732 387.306C432.318 368.258 531.133 356.617 612.656 360.85C694.179 365.083 758.409 339.686 783.113 273.019C807.817 206.351 965.921 155.557 1067.21 149.208C1130.87 145.217 1168.91 156.263 1189.5 149.208Z"
              fill="#689833"
            />
          </g>
          <defs>
            <filter
              id="filter0_d_72_1609"
              x="-26.9999"
              y="-44.4637"
              width="1334.57"
              height="582.911"
              filterUnits="userSpaceOnUse"
              color-interpolation-filters="sRGB"
            >
              <feFlood flood-opacity="0" result="BackgroundImageFix" />
              <feColorMatrix
                in="SourceAlpha"
                type="matrix"
                values="0 0 0 0 0 0 0 0 0 0 0 0 0 0 0 0 0 0 127 0"
                result="hardAlpha"
              />
              <feMorphology
                radius="7"
                operator="dilate"
                in="SourceAlpha"
                result="effect1_dropShadow_72_1609"
              />
              <feOffset dy="4" />
              <feGaussianBlur stdDeviation="10" />
              <feComposite in2="hardAlpha" operator="out" />
              <feColorMatrix
                type="matrix"
                values="0 0 0 0 0 0 0 0 0 0 0 0 0 0 0 0 0 0 0.25 0"
              />
              <feBlend
                mode="normal"
                in2="BackgroundImageFix"
                result="effect1_dropShadow_72_1609"
              />
              <feBlend
                mode="normal"
                in="SourceGraphic"
                in2="effect1_dropShadow_72_1609"
                result="shape"
              />
            </filter>
          </defs>
        </svg>