<svg width="52" height="52" viewBox="0 0 52 52" fill="none" xmlns="http://www.w3.org/2000/svg">
<g id="ri:twitter-fill">
<path id="Vector" d="M48.1282 12.2547C46.474 12.9863 44.7199 13.4669 42.9238 13.6803C44.8155 12.5475 46.2308 10.7656 46.9062 8.66667C45.1295 9.724 43.1817 10.465 41.1537 10.8658C39.79 9.40676 37.9824 8.43909 36.0121 8.11327C34.0417 7.78745 32.0189 8.12173 30.2581 9.06415C28.4973 10.0066 27.0972 11.5043 26.2754 13.3246C25.4536 15.1448 25.2563 17.1855 25.714 19.1295C22.1107 18.9492 18.5856 18.0131 15.3676 16.3819C12.1496 14.7507 9.31068 12.4609 7.03516 9.66117C6.22979 11.0445 5.80657 12.617 5.80883 14.2177C5.80883 17.3593 7.41 20.1348 9.83883 21.7598C8.40019 21.7145 6.99323 21.3259 5.73516 20.6267V20.7372C5.7351 22.8299 6.4589 24.8582 7.78381 26.4781C9.10873 28.098 10.9532 29.2098 13.0043 29.6248C11.6689 29.9871 10.2685 30.0405 8.90933 29.7808C9.48766 31.5822 10.615 33.1575 12.1333 34.2862C13.6517 35.4149 15.4851 36.0403 17.3767 36.075C15.4968 37.5515 13.3442 38.6429 11.0422 39.2868C8.74018 39.9307 6.33379 40.1145 3.96066 39.8277C8.10273 42.4913 12.9244 43.9055 17.849 43.901C34.5193 43.901 43.6323 30.0928 43.6323 18.1177C43.6323 17.7277 43.6237 17.3333 43.6063 16.9455C45.3795 15.6636 46.91 14.0759 48.126 12.2568" fill="#FDF1EE"/>
</g>
</svg>
