<svg width="32" height="32" viewBox="0 0 32 32" fill="none" xmlns="http://www.w3.org/2000/svg">
<g id="ri:twitter-fill">
<path id="Vector" d="M29.6173 7.54133C28.5994 7.99159 27.5199 8.28729 26.4147 8.41866C27.5787 7.72151 28.4497 6.62498 28.8653 5.33333C27.772 5.98399 26.5733 6.43999 25.3253 6.68666C24.4861 5.78877 23.3738 5.19328 22.1613 4.99277C20.9487 4.79227 19.7039 4.99798 18.6203 5.57793C17.5368 6.15788 16.6752 7.07957 16.1695 8.19972C15.6638 9.31986 15.5423 10.5757 15.824 11.772C13.6066 11.661 11.4373 11.085 9.45697 10.0811C7.47667 9.07733 5.72964 7.66822 4.32932 5.94533C3.8337 6.79659 3.57326 7.7643 3.57465 8.74933C3.57465 10.6827 4.55998 12.3907 6.05465 13.3907C5.16934 13.3627 4.30351 13.1237 3.52932 12.6933V12.7613C3.52928 14.0492 3.9747 15.2974 4.79003 16.2942C5.60536 17.2911 6.7404 17.9752 8.00265 18.2307C7.18084 18.4536 6.31904 18.4864 5.48265 18.3267C5.83855 19.4352 6.53227 20.4046 7.46665 21.0992C8.40103 21.7938 9.52926 22.1787 10.6933 22.2C9.53646 23.1086 8.21183 23.7802 6.79519 24.1765C5.37856 24.5727 3.8977 24.6858 2.43732 24.5093C4.98628 26.1485 7.95346 27.0187 10.984 27.016C21.2427 27.016 26.8507 18.5187 26.8507 11.1493C26.8507 10.9093 26.8453 10.6667 26.8347 10.428C27.9259 9.63914 28.8677 8.66208 29.616 7.54266" fill="#4E4846"/>
</g>
</svg>
